<svg xmlns="http://www.w3.org/2000/svg" xmlns:xlink="http://www.w3.org/1999/xlink" viewBox="0 0 20 25" version="1.1" x="0px" y="0px"><title>02 - icon/doppie-frecce</title><desc>Created with Sketch.</desc><g stroke="none" stroke-width="1" fill="none" fill-rule="evenodd"><path d="M14.9004247,4.15468885 L17.8455115,7.09840733 C17.9370603,7.1900748 17.9879207,7.30705553 17.9980927,7.42684885 L17.9980927,7.57315115 C17.9879207,7.69294447 17.9370603,7.8099252 17.8455115,7.90159267 L17.8455115,7.90159267 L14.9004247,10.8453112 C14.6944401,11.0515629 14.3604731,11.0515629 14.1544885,10.8453112 C13.9485038,10.6390594 13.9485038,10.3046591 14.1544885,10.0984073 L14.1544885,10.0984073 L16.253,8 L7.5,8 C7.22385763,8 7,7.77614237 7,7.5 C7,7.22385763 7.22385763,7 7.5,7 L16.253,7 L14.1544885,4.90159267 C13.9485038,4.69534087 13.9485038,4.36094064 14.1544885,4.15468885 C14.3604731,3.94843705 14.6944401,3.94843705 14.9004247,4.15468885 Z" fill="#000000"/><path d="M9.90042473,9.15468885 L12.8455115,12.0984073 C12.9370603,12.1900748 12.9879207,12.3070555 12.9980927,12.4268489 L12.9980927,12.5731511 C12.9879207,12.6929445 12.9370603,12.8099252 12.8455115,12.9015927 L12.8455115,12.9015927 L9.90042473,15.8453112 C9.69444011,16.0515629 9.36047307,16.0515629 9.15448846,15.8453112 C8.94850385,15.6390594 8.94850385,15.3046591 9.15448846,15.0984073 L9.15448846,15.0984073 L11.253,13 L2.5,13 C2.22385763,13 2,12.7761424 2,12.5 C2,12.2238576 2.22385763,12 2.5,12 L11.253,12 L9.15448846,9.90159267 C8.94850385,9.69534087 8.94850385,9.36094064 9.15448846,9.15468885 C9.36047307,8.94843705 9.69444011,8.94843705 9.90042473,9.15468885 Z" fill="#000000" transform="translate(7.499046, 12.500000) rotate(-180.000000) translate(-7.499046, -12.500000) "/></g><text x="0" y="35" fill="#000000" font-size="5px" font-weight="bold" font-family="'Helvetica Neue', Helvetica, Arial-Unicode, Arial, Sans-serif">Created by Ilaria Niccolini</text><text x="0" y="40" fill="#000000" font-size="5px" font-weight="bold" font-family="'Helvetica Neue', Helvetica, Arial-Unicode, Arial, Sans-serif">from the Noun Project</text></svg>